<svg width="32" height="32" viewBox="0 0 32 32" fill="none" xmlns="http://www.w3.org/2000/svg">
<circle cx="16" cy="16" r="16" fill="#FB923C"/>
<path d="M16 12V25M16 12C16 12 16 10.5072 16 10C16 8.89543 16.8954 8 18 8C19.1046 8 20 8.89543 20 10C20 11.1046 19.1046 12 18 12C17.4027 12 16 12 16 12ZM16 12C16 12 16 10.0629 16 9.5C16 8.11929 14.8807 7 13.5 7C12.1193 7 11 8.11929 11 9.5C11 10.8807 12.1193 12 13.5 12C14.3178 12 16 12 16 12ZM9 16H23M9 16C7.89543 16 7 15.1046 7 14C7 12.8954 7.89543 12 9 12H23C24.1046 12 25 12.8954 25 14C25 15.1046 24.1046 16 23 16M9 16L9 23C9 24.1046 9.89543 25 11 25H21C22.1046 25 23 24.1046 23 23V16" stroke="white" stroke-width="2" stroke-linecap="round" stroke-linejoin="round"/>
</svg>
